<?xml version="1.0" encoding="utf-8"?>
<!-- Generator: Adobe Illustrator 15.1.0, SVG Export Plug-In . SVG Version: 6.00 Build 0)  -->
<!DOCTYPE svg PUBLIC "-//W3C//DTD SVG 1.1//EN" "http://www.w3.org/Graphics/SVG/1.1/DTD/svg11.dtd">
<svg version="1.1" id="Layer_1" xmlns="http://www.w3.org/2000/svg" xmlns:xlink="http://www.w3.org/1999/xlink" x="0px" y="0px"
	 width="600px" height="600px" viewBox="0 0 600 600" enable-background="new 0 0 600 600" xml:space="preserve">
<g>
	<path fill="#808080" d="M200.772,118.194h387.312c6.619,0,11.916-5.296,11.916-11.917s-5.297-11.917-11.916-11.917H200.772
		c-6.621,0-11.917,5.297-11.917,11.917S194.152,118.194,200.772,118.194z"/>
	<path fill="#808080" d="M587.42,283.78H200.772c-6.621,0-11.917,5.296-11.917,11.917c0,6.62,5.297,11.917,11.917,11.917h387.312
		c6.619,0,11.916-5.295,11.916-11.917C600,289.076,594.041,283.78,587.42,283.78z"/>
	<path fill="#808080" d="M587.42,472.536H200.772c-6.621,0-11.917,5.297-11.917,11.918s5.297,11.918,11.917,11.918h387.312
		c6.619,0,11.916-5.297,11.916-11.918S594.041,472.536,587.42,472.536z"/>
	<path fill="#808080" d="M114.703,233.462H14.069c-6.621,0-11.917,5.296-11.917,11.917v100.635c0,6.621,5.297,11.918,11.917,11.918
		h100.634c6.621,0,11.917-5.298,11.917-11.918V245.379C125.959,238.759,120.662,233.462,114.703,233.462z"/>
	<path fill="#808080" d="M11.421,163.215h103.282c3.973,0,7.945-1.986,9.932-5.959c1.986-3.972,1.986-7.945,0-11.917l-51.642-89.38
		C71.007,52.648,67.034,50,63.062,50s-7.944,1.987-9.931,5.959L1.49,146.001c-1.986,3.31-1.986,7.944,0,11.917
		C3.476,161.89,7.448,163.215,11.421,163.215z"/>
	<path fill="#808080" d="M66.373,417.586c-36.414,0-66.207,29.792-66.207,66.207S29.959,550,66.373,550s66.207-29.793,66.207-66.207
		S102.787,417.586,66.373,417.586z"/>
</g>
</svg>
