<?xml version="1.0" encoding="utf-8"?>
<!-- Generator: Adobe Illustrator 15.1.0, SVG Export Plug-In . SVG Version: 6.00 Build 0)  -->
<!DOCTYPE svg PUBLIC "-//W3C//DTD SVG 1.1//EN" "http://www.w3.org/Graphics/SVG/1.1/DTD/svg11.dtd">
<svg version="1.1" id="Layer_1" xmlns="http://www.w3.org/2000/svg" xmlns:xlink="http://www.w3.org/1999/xlink" x="0px" y="0px"
	 width="600px" height="600px" viewBox="0 0 600 600" enable-background="new 0 0 600 600" xml:space="preserve">
<polygon fill="#808080" points="337.5,375 337.5,487.5 412.5,487.5 300,600 187.5,487.5 262.5,487.5 262.5,375 "/>
<polygon fill="#808080" points="225,337.5 112.5,337.5 112.5,412.5 0,300 112.5,187.5 112.5,262.5 225,262.5 "/>
<polygon fill="#808080" points="262.5,225 262.5,112.5 187.5,112.5 300,0 412.5,112.5 337.5,112.5 337.5,225 "/>
<polygon fill="#808080" points="375,262.5 487.5,262.5 487.5,187.5 600,300 487.5,412.5 487.5,337.5 375,337.5 "/>
</svg>
