<?xml version="1.0" encoding="utf-8"?>
<!-- Generator: Adobe Illustrator 15.1.0, SVG Export Plug-In . SVG Version: 6.00 Build 0)  -->
<!DOCTYPE svg PUBLIC "-//W3C//DTD SVG 1.1//EN" "http://www.w3.org/Graphics/SVG/1.1/DTD/svg11.dtd">
<svg version="1.1" id="Layer_1" xmlns="http://www.w3.org/2000/svg" xmlns:xlink="http://www.w3.org/1999/xlink" x="0px" y="0px"
	 width="600px" height="600px" viewBox="0 0 600 600" enable-background="new 0 0 600 600" xml:space="preserve">
<path fill="#808080" d="M0.461,316.846C-4.291,231.249,27.83,147.519,88.586,87.124C205.993-29.569,396.423-28.959,513.084,88.472
	l7.17,7.214l-65.658,65.284l-7.176-7.221c-80.686-81.218-212.38-81.637-293.576-0.943c-42.018,41.769-64.233,99.689-60.945,158.906
	L0.461,316.846z"/>
<path fill="#808080" d="M299.863,600c-0.328,0-0.652,0-0.98,0c-80.176-0.256-155.454-31.726-211.968-88.613l-7.172-7.216
	l65.658-65.282l7.178,7.224c39.09,39.346,91.15,61.11,146.597,61.287c0.223,0,0.454,0,0.678,0
	c55.197,0.002,107.124-21.414,146.299-60.35c42.018-41.768,64.232-99.686,60.947-158.904l92.438-5.132
	c4.749,85.6-27.372,169.329-88.127,229.721C454.769,569.032,379.674,600,299.863,600z"/>
<polygon fill="#808080" points="578.708,20.835 378.092,220.445 578.161,220.949 "/>
<polygon fill="#808080" points="30.089,590.457 230.706,390.846 30.638,390.344 "/>
</svg>
