<?xml version="1.0" encoding="utf-8"?>
<!-- Generator: Adobe Illustrator 15.1.0, SVG Export Plug-In . SVG Version: 6.00 Build 0)  -->
<!DOCTYPE svg PUBLIC "-//W3C//DTD SVG 1.1//EN" "http://www.w3.org/Graphics/SVG/1.1/DTD/svg11.dtd">
<svg version="1.1" id="Layer_1" xmlns="http://www.w3.org/2000/svg" xmlns:xlink="http://www.w3.org/1999/xlink" x="0px" y="0px"
	 width="600px" height="600px" viewBox="0 0 600 600" enable-background="new 0 0 600 600" xml:space="preserve">
<g>
	<path fill="#808080" d="M94.737,0h410.527C557.685,0,600,44.667,600,100v300c0,55.334-42.315,100.001-94.736,100.001H394.737
		L300,600l-94.737-99.999H94.737C42.315,500.001,0,455.334,0,400V100C0,44.667,42.315,0,94.737,0"/>
	<path opacity="0" fill="#FFFFFF" d="M130.284,78.332c-28.721,0-52.22,24.805-52.22,55.121v248.046
		c0,30.316,23.499,55.121,52.22,55.121h102.091L300,508.002l67.625-71.382h102.091c28.722,0,52.22-24.805,52.22-55.121V133.453
		c0-30.316-23.498-55.121-52.22-55.121H130.284z"/>
</g>
</svg>
