<?xml version="1.0" encoding="utf-8"?>
<!-- Generator: Adobe Illustrator 15.1.0, SVG Export Plug-In . SVG Version: 6.00 Build 0)  -->
<!DOCTYPE svg PUBLIC "-//W3C//DTD SVG 1.1//EN" "http://www.w3.org/Graphics/SVG/1.1/DTD/svg11.dtd">
<svg version="1.1" id="Layer_1" xmlns="http://www.w3.org/2000/svg" xmlns:xlink="http://www.w3.org/1999/xlink" x="0px" y="0px"
	 width="600px" height="600px" viewBox="0.5 792.5 600 600" enable-background="new 0.5 792.5 600 600" xml:space="preserve">
<path fill="#E5E5E5" d="M243.97,1239.979c-112.489,0-203.975-91.479-203.975-203.93c0-112.49,91.485-203.969,203.975-203.969
	c112.438,0,203.975,91.479,203.975,203.969C447.945,1148.501,356.409,1239.979,243.97,1239.979z"/>
<path display="none" fill="#808080" d="M421.511,1178.489c32.504-40.285,50.169-90.086,50.169-142.439
	c0-125.561-102.149-227.717-227.71-227.717c-125.566,0-227.716,102.156-227.716,227.717c0,125.516,102.149,227.658,227.716,227.658
	c53.152,0,103.499-18.114,144.119-51.461l162.924,164.419l33.732-33.391L421.511,1178.489z M243.97,1239.979
	c-112.489,0-203.975-91.479-203.975-203.93c0-112.49,91.485-203.969,203.975-203.969c112.438,0,203.975,91.479,203.975,203.969
	C447.945,1148.501,356.409,1239.979,243.97,1239.979z"/>
<path fill="#808080" d="M421.511,1178.489c18.376-15.245-5.673-31.707-11.081-32.3c-13.483-1.477-51.336,34.044-54.264,50.388
	c-1.425,7.957,16.279,31.001,31.923,15.67l162.924,164.419l33.732-33.391L421.511,1178.489z"/>
<path fill="none" stroke="#808080" stroke-width="40" stroke-miterlimit="10" d="M236.218,1227.578
	c-109.924,0-199.324-89.393-199.324-199.28c0-109.925,89.399-199.317,199.324-199.317c109.875,0,199.324,89.393,199.324,199.317
	C435.542,1138.186,346.093,1227.578,236.218,1227.578z"/>
</svg>
